<svg width="100" height="100" viewBox="0 0 100 100" fill="none" xmlns="http://www.w3.org/2000/svg">
<path d="M94.8851 44.4442C94.8851 68.9829 74.7819 88.8883 49.9993 88.8883C25.2111 88.8883 5.11353 68.9829 5.11353 44.4442C5.11353 19.8999 25.2111 0 49.9993 0C74.7819 0 94.8851 19.8999 94.8851 44.4442Z" fill="#FFCC4D"/>
<path d="M72.0522 44.8025C71.6314 44.3553 71.003 44.3275 70.5513 44.7219C70.4588 44.8025 61.2852 52.7774 49.9993 52.7774C38.7413 52.7774 29.5398 44.8025 29.4472 44.7219C28.9927 44.3275 28.3671 44.3608 27.9463 44.8025C27.5283 45.2469 27.4357 45.9803 27.7247 46.5469C28.0277 47.1441 35.3244 61.1107 49.9993 61.1107C64.6741 61.1107 71.9737 47.1441 72.2738 46.5469C72.5628 45.9775 72.4702 45.2469 72.0522 44.8025Z" fill="#664500"/>
<path d="M37.075 64.3162L32.7576 58.1524C32.7576 58.1524 31.2342 55.7441 28.7992 57.2496C26.3669 58.7524 27.8903 61.1635 27.8903 61.1635L32.8221 70.5523C32.8221 70.5523 33.2261 72.6856 30.2468 70.2995C28.9479 69.2606 29.6941 69.8468 29.6941 69.8468L28.4597 68.844L13.0555 56.3218C13.0555 56.3218 11.0665 54.2441 9.24301 56.4385C7.42514 58.6357 9.86861 60.1635 9.86861 60.1635L24.4369 72.0134C24.1002 72.3467 23.0847 73.4967 22.7536 73.8551L7.16424 61.1885C7.16424 61.1885 5.17243 59.1079 3.35456 61.3024C1.53107 63.4996 3.97735 65.0273 3.97735 65.0273L19.5611 77.6995C19.2722 78.0884 18.5428 79.0217 18.2735 79.405L4.83018 68.4773C4.83018 68.4773 2.83837 66.3996 1.02049 68.594C-0.805796 70.7912 1.64329 72.3217 1.64329 72.3217L15.9338 83.9439C15.7543 84.4383 14.9155 85.7383 14.7836 86.2216L4.48231 77.855C4.48231 77.855 2.49331 75.7662 0.675435 77.9689C-1.14805 80.1661 1.29823 81.6939 1.29823 81.6939L17.934 95.216L19.0421 96.1216C26.3922 102.097 37.2461 101.041 43.2805 93.7633C48.8098 87.0883 48.3778 77.505 42.6072 71.3495C40.5621 69.1773 38.7919 66.7579 37.075 64.3162ZM99.326 77.9717C97.5081 75.7689 95.5191 77.8578 95.5191 77.8578L85.2178 86.2244C85.086 85.7411 84.2472 84.4383 84.0676 83.9467L98.3582 72.3245C98.3582 72.3245 100.807 70.794 98.9837 68.5968C97.1659 66.4023 95.1741 68.4801 95.1741 68.4801L81.7308 79.4078C81.4615 79.0217 80.7293 78.0884 80.4431 77.7023L96.0269 65.0301C96.0269 65.0301 98.476 63.5023 96.6525 61.3051C94.8346 59.1107 92.8456 61.1912 92.8456 61.1912L77.2534 73.8578C76.9252 73.4995 75.9096 72.3495 75.5702 72.0162L90.1384 60.1663C90.1384 60.1663 92.5791 58.6385 90.764 56.4413C88.9406 54.2468 86.9516 56.3246 86.9516 56.3246L71.5473 68.8468L70.3158 69.8495C70.3158 69.8495 73.0931 67.5134 69.7631 70.3023C66.4303 73.0912 67.1878 70.5551 67.1878 70.5551L72.1196 61.1663C72.1196 61.1663 73.6429 58.7552 71.2107 57.2524C68.7728 55.7468 67.2523 58.1552 67.2523 58.1552L62.9376 64.319C61.218 66.7607 59.4478 69.1801 57.3999 71.3551C51.6264 77.5134 51.1944 87.0939 56.7294 93.7688C62.7609 101.047 73.6177 102.102 80.9677 96.1271L82.0786 95.2216L98.7144 81.6995C98.7004 81.6967 101.147 80.1689 99.326 77.9717Z" fill="#F4900C"/>
<path d="M77.147 30.5081C77.0039 30.1692 73.5421 22.2221 66.4277 22.2221C59.3189 22.2221 55.8571 30.1692 55.714 30.5081C55.4896 31.0304 55.6354 31.6359 56.059 31.997C56.477 32.3526 57.083 32.3637 57.5262 32.0303C57.5543 32.0053 60.5588 29.7637 66.4277 29.7637C72.26 29.7637 75.2618 31.9776 75.3319 32.0303C75.5423 32.1942 75.7948 32.2776 76.0473 32.2776C76.3138 32.2776 76.5775 32.1831 76.7963 32.0026C77.2255 31.6442 77.3714 31.0304 77.147 30.5081ZM46.288 30.5081C46.1421 30.1692 42.6831 22.2221 35.5687 22.2221C28.4599 22.2221 24.9981 30.1692 24.8522 30.5081C24.6306 31.0304 24.7736 31.6359 25.2001 31.997C25.6209 32.3526 26.2268 32.3637 26.6673 32.0303C26.6981 32.0053 29.6999 29.7637 35.5687 29.7637C41.4038 29.7637 44.4028 31.9776 44.4701 32.0303C44.6833 32.1942 44.933 32.2776 45.1855 32.2776C45.452 32.2776 45.7157 32.1831 45.9345 32.0026C46.3665 31.6442 46.5096 31.0304 46.288 30.5081Z" fill="#664500"/>
<path d="M30.8725 70.7718C30.8725 70.7718 23.5981 79.9773 32.2302 91.4939C32.825 92.2855 34.3343 91.8994 33.6918 90.9717C32.9905 89.9606 25.9771 80.1495 32.5697 71.369C32.5697 71.369 31.5009 71.2385 30.8725 70.7718ZM68.9777 71.044C68.9777 71.044 76.2548 80.2495 67.6199 91.7661C67.0252 92.5578 65.5159 92.1717 66.1583 91.2439C66.8596 90.2328 73.873 80.4217 67.2804 71.6412C67.2776 71.644 68.3493 71.5135 68.9777 71.044Z" fill="#B55005"/>
</svg>
